<svg width="40" height="50" viewBox="0 0 40 50" fill="none" xmlns="http://www.w3.org/2000/svg">
<path id="Vector" fill-rule="evenodd" clip-rule="evenodd" d="M0.0490308 45.8091C0.0490308 50.1951 3.67161 50.89 5.82238
49.042C7.97316 47.1936 25.7366 30.2174 27.621 27.9513C29.5054 25.6849 29.879 23.9058 27.6567 21.6798C25.4341 19.4539
8.84576 2.67316 6.04303 0.898728C3.24029 -0.876326 0 -0.139709 0 4.1665C0 8.47301 0.0490308 41.4228 0.0490308
45.8091ZM21.3511 23.608C21.9079 24.1516 21.915 25.0342 21.3636 25.5834L7.68104 39.2077C7.1313 39.7551 6.68543 39.6422
6.68543 38.9628L6.68377 10.5106C6.68377 9.82811 7.13587 9.71648 7.69101 10.2589L21.3511 23.608ZM39.9942
47.9942C40.0648 48.7791 39.4872 49.4761 38.5606 49.4761H35.1562C33.6374 49.4761 33.6935 49.2652 33.6935 48.2828C33.6935
 47.3006 33.8572 2.78326 33.8847 1.93964C33.9113 1.09572 34.3251 0.562273 35.2222 0.562273C36.1194 0.562273 37.8201 0.562272 38.6836 0.564127C39.5475 0.566292 39.9668 1.15076 39.9668 1.81131C39.9668 2.47185 39.9235 47.2091 39.9942 47.9942Z" fill="#242A26"/>
</svg>
