<svg width="40" height="50" viewBox="0 0 40 50" fill="none" xmlns="http://www.w3.org/2000/svg">
<path id="Vector" fill-rule="evenodd" clip-rule="evenodd" d="M39.951 45.8091C39.951 50.1951 36.3284 50.89 34.1776
49.042C32.0268 47.1936 14.2634 30.2174 12.379 27.9513C10.4946 25.6849 10.121 23.9058 12.3433 21.6798C14.5659 19.4539
31.1542 2.67316 33.957 0.898728C36.7597 -0.876326 40 -0.139709 40 4.1665C40 8.47301 39.951 41.4228 39.951
45.8091ZM18.6489 23.608C18.0921 24.1516 18.085 25.0342 18.6364 25.5834L32.319 39.2077C32.8687 39.7551 33.3146 39.6422
33.3146 38.9628L33.3162 10.5106C33.3162 9.82811 32.8641 9.71648 32.309 10.2589L18.6489 23.608ZM0.00582241
47.9942C-0.0648174 48.7791 0.512766 49.4761 1.43939 49.4761H4.84382C6.36258 49.4761 6.30647 49.2652 6.30647
48.2828C6.30647 47.3006 6.14276 2.78326 6.11534 1.93964C6.08874 1.09572 5.67488 0.562273 4.77775 0.562273C3.88063
0.562273 2.17987 0.562272 1.3164 0.564127C0.452518 0.566292 0.0332449 1.15076 0.0332449 1.81131C0.0332449 2.47185
0.0764622 47.2091 0.00582241 47.9942Z" fill="black"/>
</svg>
