<svg width="50" height="15" viewBox="0 0 50 15" fill="none" xmlns="http://www.w3.org/2000/svg">
<path id="Menu icon - aberto" fill-rule="evenodd" clip-rule="evenodd" d="M5 7.5C5 8.88075 6.1193 10 7.5 10C8.8807 10 10
8.88075 10 7.5C10 6.11925 8.8807 5 7.5 5C6.1193 5 5 6.11925 5 7.5ZM7.5 0C11.6421 0 15 3.35775 15 7.5C15 11.6423 11.6421
 15 7.5 15C3.35788 15 0 11.6423 0 7.5C0 3.35775 3.35788 0 7.5 0ZM22.5 7.5C22.5 8.88075 23.6193 10 25 10C26.3807 10 27.5
  8.88075 27.5 7.5C27.5 6.11925 26.3807 5 25 5C23.6193 5 22.5 6.11925 22.5 7.5ZM25 0C29.1423 0 32.5 3.35775 32.5
   7.5C32.5 11.6423 29.1423 15 25 15C20.8577 15 17.5 11.6423 17.5 7.5C17.5 3.35775 20.8577 0 25 0ZM42.5 10C41.1193 10
   40 8.88075 40 7.5C40 6.11925 41.1193 5 42.5 5C43.8807 5 45 6.11925 45 7.5C45 8.88075 43.8807 10 42.5 10ZM50 7.5C50
    3.35775 46.6423 0 42.5 0C38.3577 0 35 3.35775 35 7.5C35 11.6423 38.3577 15 42.5 15C46.6423 15 50 11.6423 50 7.5Z" fill="black"/>
</svg>
