<svg width="96" height="99" viewBox="0 0 96 99" fill="none" xmlns="http://www.w3.org/2000/svg">
<g id="Group">
<path id="Vector" d="M89.5642 24.5368C85.2718 16.989 79.4494 11.0129 72.0954 6.60744C64.7402 2.20218 56.711 0 48.0015
0C39.293 0 31.2613 2.20218 23.9074 6.60744C16.553 11.0123 10.7306 16.9883 6.43821 24.5368C2.14556 32.0857 0 40.3293 0
49.267C0 58.2051 2.14621 66.4474 6.43755 73.9968C10.7298 81.5446 16.5522 87.5206 23.9065 91.9266C31.2613 96.3316 39.2923
 98.534 48.0007 98.534C56.709 98.534 64.7409 96.3316 72.0952 91.9266C79.4491 87.5222 85.2713 81.5446 89.5633
 73.9968C93.8547 66.4481 96 58.2047 96 49.267C96.0002 40.3284 93.8547 32.0845 89.5642 24.5368ZM79.1893 58.3108L72.8139
 64.8557C72.0212 65.6678 71.0843 66.0745 70.0015 66.0745C68.9184 66.0745 67.9797 65.6678 67.1892 64.8557L48.0007
 45.161L28.8139 64.8557C28.0223 65.6678 27.0849 66.0745 26.0015 66.0745C24.9179 66.0745 23.9803 65.6678 23.1885
 64.8557L16.8138 58.3108C16.022 57.5003 15.626 56.5362 15.626 55.4242C15.626 54.3137 16.022 53.351 16.8138
 52.5374L45.1892 23.414C45.981 22.6013 46.9181 22.1953 48.0015 22.1953C49.0849 22.1953 50.0238 22.6013
 50.8137 23.414L79.1893 52.5374C79.9802 53.351 80.3767 54.3135 80.3767 55.4242C80.3767 56.5359 79.9811 57.5001
 79.1893 58.3108Z" fill="black"/>
</g>
</svg>
