<svg width="139" height="73" viewBox="0 0 139 73" fill="none" xmlns="http://www.w3.org/2000/svg">
<g id="icon">
<path id="Vector" d="M75.0864 0.0429044C74.3889 0.18337 73.5646 0.604765 73.2476 0.885696C72.9306 1.23686 72.7404 5.31035 72.8038 9.87547C72.9306 19.7783 72.2331 22.3066 66.7169 31.9988C61.9615 40.4267 60.5032 41.0588 58.9181 35.7211C58.3474 33.7546 58.2206 30.9453 58.5376 26.3801C58.9181 20.6211 58.7912 19.8485 57.9036 19.8485C57.1427 19.8485 56.9525 19.4271 57.2695 18.1629C57.4597 17.1797 57.3963 16.2666 57.1427 16.0559C56.8891 15.9155 53.9725 17.1797 50.6754 18.9355C45.3494 21.7448 38.5016 24.7648 37.4237 24.7648C37.2335 24.7648 37.1701 21.1127 37.2969 16.5476C37.6139 4.60803 36.4092 1.23686 31.7806 1.44756C29.7517 1.51779 21.5724 4.32709 18.9728 5.80198C18.4022 6.08291 17.0706 6.57454 15.9294 6.85547C14.5344 7.1364 13.9004 7.69826 13.9004 8.68152C13.9004 10.648 15.8025 10.3671 22.5235 7.62803C25.6303 6.36384 29.1176 5.02942 30.1955 4.81872C31.9709 4.39733 32.2245 4.53779 32.8585 6.57454C33.6194 8.96245 33.8096 19.9187 33.1756 24.1327C32.7951 26.3801 32.4781 26.8015 30.1321 27.5741C22.9039 29.962 21.6992 30.5239 19.7971 31.7881C18.6558 32.5606 17.7047 33.6843 17.7047 34.2462C17.7047 35.5806 19.8605 35.5806 21.7626 34.2462C22.9039 33.4034 31.8441 29.6811 32.7317 29.6811C32.8585 29.6811 32.8585 36.0722 32.7951 43.8681C32.6049 56.5099 32.7317 58.1253 33.6194 58.336C35.2045 58.6872 35.585 56.7909 35.8386 47.5904C35.9654 42.955 36.219 36.7746 36.4092 33.8248L36.8531 28.4871L43.8276 24.9053C47.6953 22.8685 50.9924 21.3936 51.1826 21.5341C51.3094 21.7448 50.612 23.2197 49.5975 24.9053C47.3783 28.4871 44.6519 35.8615 44.0178 39.935C43.5106 43.6574 44.6519 48.363 46.3004 49.4164C47.0613 49.8378 48.3294 49.9783 49.1537 49.7676C50.8656 49.276 53.8456 44.8513 53.8456 42.6741C53.909 41.9016 54.2895 40.4969 54.7967 39.5136L55.621 37.7578L56.0648 39.7243C56.8891 43.1657 60.2496 44.0788 63.3564 41.6206C64.3709 40.8481 66.9071 37.2662 68.9995 33.7546C71.1553 30.1727 72.8672 27.7146 72.8672 28.2764C72.9306 28.8383 72.9306 33.7546 72.8672 39.1625C72.8672 44.5704 73.1208 49.4164 73.4378 49.9081C73.6915 50.4699 74.4523 50.7509 75.0864 50.6104C76.1009 50.3997 76.2277 48.9248 76.4179 32.5606C76.6081 21.815 76.9251 14.3704 77.3056 13.8787C77.686 13.3871 78.1298 10.929 78.3834 8.40059C78.7005 4.53779 78.5737 3.41407 77.5592 1.79872C76.7349 0.394068 75.974 -0.167793 75.0864 0.0429044ZM53.2116 32.7011C51.8167 39.935 49.6609 46.5369 48.7732 46.5369C47.949 46.5369 47.5051 44.5704 47.5051 41.2695C47.5051 37.6174 49.6609 30.5941 52.3239 25.748C53.909 22.728 54.1627 22.5173 54.3529 23.922C54.4797 24.835 53.9725 28.768 53.2116 32.7011Z" fill="white"/>
<path id="Vector_2" d="M0.903524 6.08242C-0.301175 9.17266 -0.301175 12.1927 0.903524 31.0852C2.93249 63.1815 3.56654 67.3955 5.84913 64.8671C6.29296 64.3755 6.29296 61.7067 5.78572 55.5262C4.58102 41.1285 3.75676 25.6773 3.56654 14.6508C3.50314 6.92522 3.24951 4.11591 2.61546 3.83498C2.17163 3.69451 1.41076 4.67777 0.903524 6.08242Z" fill="white"/>
<path id="Vector_3" d="M104.443 10.9992C102.668 12.4741 101.4 16.6178 100.829 23.009C100.512 26.3099 100.195 29.1192 100.068 29.1895C99.9416 29.3299 98.7369 30.243 97.4688 31.2964L95.1862 33.1927L93.2207 30.4537C87.641 22.6578 86.3095 13.8085 90.9381 14.7215C92.967 15.2132 93.0304 13.7383 90.9381 12.6848C87.5776 10.9992 84.2805 14.3704 84.2805 19.4974C84.2805 22.7983 85.1682 25.0457 88.5921 30.6644C91.3185 35.1592 91.4453 35.5806 90.3674 36.283C87.007 38.5304 83.6465 41.8313 83.6465 42.9551C83.6465 44.5704 86.0559 47.0286 88.2751 47.5904C89.2261 47.8713 91.0015 47.8713 92.2062 47.6606C95.3764 46.9583 97.2152 42.9551 96.3909 38.6709C96.0105 37.0555 95.8203 35.6509 95.8837 35.5806C95.9471 35.5806 96.7079 35.0188 97.5956 34.3867C99.8782 32.6309 100.576 32.9118 101.019 35.6509C102.097 41.9718 107.804 44.5704 111.101 40.216C112.559 38.3899 116.49 28.3467 116.681 26.029C116.744 25.5374 116.998 27.223 117.251 29.8216C117.758 35.7211 119.09 38.109 121.88 38.109C122.958 38.109 124.543 37.5471 125.24 36.8448C126.889 35.3699 131.327 28.0657 132.405 24.9053C134.307 19.7081 134.561 21.6043 134.18 38.1792C133.8 53.3495 133.483 57.9848 131.961 68.1686C131.454 71.1886 131.517 72.0314 132.278 72.3123C135.956 73.8574 137.858 61.0751 138.555 29.1192L138.999 10.7183H137.097C135.512 10.7183 134.878 11.2099 133.737 13.3169C132.912 14.7918 131.834 17.4606 131.264 19.2164C130.249 22.2364 126.508 29.8216 124.543 32.7713C124.036 33.4737 123.275 33.8951 122.767 33.6844C121.373 33.1225 120.992 29.3299 121.753 22.2364C122.45 15.1429 122.26 14.2299 120.421 14.2299C118.202 14.2299 115.729 18.8653 111.925 30.3132C110.72 33.9653 109.262 37.4067 108.755 38.0388C107.867 38.9518 107.677 38.9518 106.536 37.8281C105.902 37.196 105.141 35.5104 104.887 34.176C104.697 32.7713 104.38 31.2964 104.19 30.8048C104.063 30.3834 104.887 28.5574 106.029 26.8718C108.818 22.7983 110.403 18.2332 109.896 15.775C108.755 10.5778 106.853 8.89224 104.443 10.9992ZM106.155 20.2699C105.965 21.9555 105.458 23.5006 105.077 23.7816C104.38 24.2732 104.951 15.9155 105.775 14.5811C106.346 13.4574 106.663 16.8988 106.155 20.2699ZM93.0304 40.4267C93.1573 41.4099 92.9036 42.9551 92.5232 43.7276C91.9526 44.9216 91.4453 45.1323 89.7968 44.7811C86.1193 43.8681 86.0559 42.323 89.5432 39.7244C92.016 37.8983 92.7768 38.0388 93.0304 40.4267Z" fill="white"/>
</g>
</svg>
